<svg xmlns="http://www.w3.org/2000/svg" viewBox="0 0 512 512" width="512" height="512">
  <!-- Background circle -->
  <circle cx="256" cy="256" r="256" fill="#f97316"/>
  
  <!-- Task list icon -->
  <g transform="translate(256, 256)">
    <!-- Checkbox -->
    <rect x="-80" y="-120" width="40" height="40" rx="4" fill="white" stroke="white" stroke-width="2"/>
    <path d="M -65 -105 L -55 -115 L -45 -105" stroke="#f97316" stroke-width="4" fill="none" stroke-linecap="round" stroke-linejoin="round"/>
    
    <!-- Task line 1 -->
    <rect x="-30" y="-110" width="100" height="8" rx="4" fill="white"/>
    
    <!-- Checkbox 2 -->
    <rect x="-80" y="-60" width="40" height="40" rx="4" fill="white" stroke="white" stroke-width="2"/>
    <path d="M -65 -45 L -55 -55 L -45 -45" stroke="#f97316" stroke-width="4" fill="none" stroke-linecap="round" stroke-linejoin="round"/>
    
    <!-- Task line 2 -->
    <rect x="-30" y="-50" width="80" height="8" rx="4" fill="white"/>
    
    <!-- Container/folder icon -->
    <path d="M -60 20 L -100 20 L -100 60 L 100 60 L 100 20 L 60 20 L 50 0 L -50 0 Z" fill="white" opacity="0.9"/>
    <path d="M -50 0 L -60 20 L 60 20 L 50 0" fill="white" opacity="0.7"/>
  </g>
</svg>
